<svg width="266" height="232" viewBox="0 0 266 232" fill="none" xmlns="http://www.w3.org/2000/svg">
<path d="M56.153 58.2025V120.008C56.153 130.337 58.3187 137.834 62.4835 142.665C66.8149 147.496 73.8118 149.829 83.6408 149.829C93.4698 149.829 100.3 147.496 104.132 142.665C107.963 138 109.963 130.337 109.963 120.008V84.5242C109.963 78.3602 109.463 72.8627 108.463 68.0315C107.464 63.2003 105.298 59.202 102.133 55.8702C98.9673 52.5383 94.4693 50.0394 88.9718 48.3735C83.3076 46.7076 75.8109 45.708 66.6483 45.708H5.34213C1.84367 45.708 0.177734 44.0421 0.177734 40.7102V5.22594C0.177734 1.89408 1.84367 0.228149 5.34213 0.228149H65.3156C82.1415 0.228149 96.6351 1.89407 108.63 5.05933C120.624 8.2246 130.62 13.0558 138.283 19.7195C145.947 26.3832 151.611 34.7129 155.109 45.0416C158.608 55.3704 160.44 67.6983 160.44 82.0253V121.841C160.44 135.335 158.774 146.663 155.276 155.826C151.777 164.989 147.113 172.485 140.949 178.316L156.942 203.638C158.608 206.97 157.941 209.136 155.276 210.302L120.125 230.626C118.625 231.293 117.293 231.459 115.96 231.459C114.627 231.293 113.628 230.46 112.795 228.96L95.6355 194.642C93.6364 194.809 91.6373 194.975 89.6381 194.975C87.639 194.975 85.6399 195.142 83.6408 195.142C72.1459 195.142 61.6505 193.976 51.9882 191.643C42.3258 189.311 34.1627 185.313 27.1658 179.649C20.1689 173.985 14.8379 166.488 11.0063 156.992C7.17464 147.663 5.17552 135.835 5.17552 121.674V58.2025C5.17552 54.8706 6.84145 53.2047 10.1733 53.2047H50.6554C54.3204 53.2047 56.153 54.8706 56.153 58.2025Z" fill="url(#paint0_linear_1_2141)"/>
<path d="M155.276 44.8753C151.611 34.5466 146.113 26.0503 138.45 19.5532C136.618 18.0538 134.618 16.5545 132.619 15.0552C132.453 15.2218 132.12 15.3884 131.953 15.555C124.956 21.2191 119.625 28.8824 115.96 38.3782C112.295 47.874 110.296 59.7021 110.296 73.8625V130.337C110.296 144.498 112.128 156.326 115.96 165.655C119.792 174.984 125.123 182.648 131.953 188.312C138.45 193.643 146.113 197.474 155.109 199.973L141.282 178.15C147.446 172.319 152.277 164.822 155.609 155.66C158.941 146.497 160.774 135.169 160.774 121.675V81.859C160.607 67.532 158.774 55.2041 155.276 44.8753Z" fill="url(#paint1_linear_1_2141)"/>
<path d="M265.394 132.67C265.394 146.33 263.394 157.825 259.729 166.821C255.898 175.984 250.567 183.314 243.57 188.811C236.573 194.309 228.41 198.141 218.914 200.473C209.418 202.639 199.09 203.805 187.928 203.805C176.433 203.805 165.938 202.639 156.442 200.306C146.946 197.974 138.783 193.976 131.786 188.312C124.789 182.648 119.458 175.151 115.793 165.655C112.128 156.326 110.129 144.498 110.129 130.337V73.8623C110.129 59.7019 111.961 47.8738 115.793 38.378C119.458 28.8822 124.789 21.3855 131.786 15.5548C138.616 9.89063 146.946 5.89241 156.442 3.56011C165.938 1.22781 176.433 0.0616455 187.928 0.0616455C199.423 0.0616455 209.918 1.22779 219.414 3.72669C228.91 6.22558 237.073 10.2238 243.903 15.7214C250.733 21.3856 256.064 28.7156 259.729 37.7117C263.394 46.8743 265.394 57.8694 265.394 71.0303V73.3625C265.227 76.6944 263.561 78.3603 260.396 78.3603H219.747C216.249 78.3603 214.416 76.5278 214.416 73.0294V69.3643C214.416 61.0347 212.417 54.3709 208.585 49.5397C204.587 44.7085 197.757 42.2097 187.928 42.2097C178.099 42.2097 171.102 44.542 167.104 49.3732C162.939 54.2044 160.94 61.701 160.94 72.0298V132.17C160.94 142.499 162.939 149.995 167.104 154.827C171.102 159.658 178.099 161.99 187.928 161.99C197.757 161.99 204.587 159.658 208.585 154.827C212.417 149.995 214.416 142.499 214.416 132.17V128.172C214.416 124.673 216.249 123.007 219.747 123.007H260.396C263.728 123.007 265.394 124.84 265.394 128.172V132.67Z" fill="url(#paint2_linear_1_2141)"/>
<defs>
<linearGradient id="paint0_linear_1_2141" x1="42.6118" y1="15.716" x2="116.338" y2="169.974" gradientUnits="userSpaceOnUse">
<stop stop-color="#00487F"/>
<stop offset="1" stop-color="#001855"/>
</linearGradient>
<linearGradient id="paint1_linear_1_2141" x1="104.206" y1="46.5191" x2="173.935" y2="176.49" gradientUnits="userSpaceOnUse">
<stop stop-color="#00487F"/>
<stop offset="1" stop-color="#001855"/>
</linearGradient>
<linearGradient id="paint2_linear_1_2141" x1="146.949" y1="25.7038" x2="230.316" y2="181.096" gradientUnits="userSpaceOnUse">
<stop stop-color="#00487F"/>
<stop offset="1" stop-color="#001855"/>
</linearGradient>
</defs>
</svg>
