<svg width="28" height="27" viewBox="0 0 28 27" fill="none" xmlns="http://www.w3.org/2000/svg">
<path d="M12.4626 26.3127L1.23116 15.0812C1.06099 14.911 0.940164 14.7266 0.868691 14.5281C0.798353 14.3296 0.763184 14.1169 0.763184 13.89C0.763184 13.6631 0.798353 13.4503 0.868691 13.2518C0.940164 13.0533 1.06099 12.8689 1.23116 12.6987L12.4626 1.46727C12.7746 1.15528 13.1643 0.991913 13.6317 0.977165C14.1003 0.963551 14.5047 1.12692 14.8451 1.46727C15.1854 1.77925 15.363 2.16895 15.3777 2.63636C15.3913 3.10491 15.228 3.50935 14.8876 3.8497L6.5491 12.1882H25.566C26.0482 12.1882 26.4526 12.351 26.7794 12.6766C27.105 13.0034 27.2678 13.4078 27.2678 13.89C27.2678 14.3721 27.105 14.776 26.7794 15.1016C26.4526 15.4283 26.0482 15.5917 25.566 15.5917H6.5491L14.8876 23.9302C15.1996 24.2422 15.363 24.6393 15.3777 25.1214C15.3913 25.6036 15.228 26.0007 14.8876 26.3127C14.5756 26.653 14.1786 26.8232 13.6964 26.8232C13.2142 26.8232 12.803 26.653 12.4626 26.3127Z" fill="#001855"/>
</svg>
